0
SECTION
2
HEADER
9
$INSUNITS
70
4
0
ENDSEC
0
SECTION
2
ENTITIES
0
CIRCLE
8
OUTLINE
10
0.0000
20
0.0000
30
0.0
40
75.0000
0
CIRCLE
8
BORE
10
0.0000
20
0.0000
30
0.0
40
20.0000
0
CIRCLE
8
TAP-M8-DRILL
10
46.6690
20
46.6690
30
0.0
40
3.4000
0
CIRCLE
8
TAP-M8-DRILL
10
-46.6690
20
46.6690
30
0.0
40
3.4000
0
CIRCLE
8
TAP-M8-DRILL
10
-46.6690
20
-46.6690
30
0.0
40
3.4000
0
CIRCLE
8
TAP-M8-DRILL
10
46.6690
20
-46.6690
30
0.0
40
3.4000
0
CIRCLE
8
DOWEL-8H7
10
66.0000
20
0.0000
30
0.0
40
3.9000
0
CIRCLE
8
CLEAR-9
10
40.0000
20
0.0000
30
0.0
40
4.5000
0
CIRCLE
8
CBORE-15
10
40.0000
20
0.0000
30
0.0
40
7.5000
0
CIRCLE
8
CLEAR-9
10
0.0000
20
40.0000
30
0.0
40
4.5000
0
CIRCLE
8
CBORE-15
10
0.0000
20
40.0000
30
0.0
40
7.5000
0
CIRCLE
8
CLEAR-9
10
-40.0000
20
0.0000
30
0.0
40
4.5000
0
CIRCLE
8
CBORE-15
10
-40.0000
20
0.0000
30
0.0
40
7.5000
0
CIRCLE
8
CLEAR-9
10
-0.0000
20
-40.0000
30
0.0
40
4.5000
0
CIRCLE
8
CBORE-15
10
-0.0000
20
-40.0000
30
0.0
40
7.5000
0
CIRCLE
8
PCD
10
0.0000
20
0.0000
30
0.0
40
66.0000
0
CIRCLE
8
PCD
10
0.0000
20
0.0000
30
0.0
40
40.0000
0
CIRCLE
8
REF-ROBOT-BASE
10
0.0000
20
0.0000
30
0.0
40
74.5000
0
LINE
8
CENTRE
10
-85.0000
20
0.0000
30
0.0
11
85.0000
21
0.0000
31
0.0
0
LINE
8
CENTRE
10
0.0000
20
-85.0000
30
0.0
11
0.0000
21
85.0000
31
0.0
0
TEXT
8
NOTE
10
-75.0000
20
91.0000
30
0.0
40
5.00
1
UR5D-MP-01 MOUNT FLANGE t22 - mm 1:1
0
ENDSEC
0
EOF
